<mxfile host="app.diagrams.net" modified="2023-06-17T14:58:55.001Z" agent="Mozilla/5.0 (Windows NT 10.0; Win64; x64) AppleWebKit/537.36 (KHTML, like Gecko) Chrome/114.0.0.0 Safari/537.36" etag="DSDdvWbqCXdbasmL6TlK" version="21.4.0" type="google">
  <diagram name="Página-1" id="XcdUgbsTgv3j03JkCSzk">
    <mxGraphModel grid="1" page="1" gridSize="10" guides="1" tooltips="1" connect="1" arrows="1" fold="1" pageScale="1" pageWidth="827" pageHeight="1169" math="0" shadow="0">
      <root>
        <mxCell id="0" />
        <mxCell id="1" parent="0" />
        <mxCell id="V8IBxEHYH1ZGZcFTTXO_-1" value="&lt;font face=&quot;Verdana&quot;&gt;&lt;i&gt;&lt;b&gt;Levantamento de Necessecidades&lt;/b&gt;&lt;/i&gt;&lt;/font&gt;" style="rounded=1;whiteSpace=wrap;html=1;glass=0;shadow=1;strokeWidth=2;fillColor=#d5e8d4;strokeColor=#000000;" vertex="1" parent="1">
          <mxGeometry x="354" y="-170" width="120" height="60" as="geometry" />
        </mxCell>
        <mxCell id="r3s8fJWrFk4dB2Nv2RAv-1" value="" style="endArrow=classic;html=1;rounded=0;shadow=1;strokeWidth=4;" edge="1" parent="1">
          <mxGeometry width="50" height="50" relative="1" as="geometry">
            <mxPoint x="500" y="-130" as="sourcePoint" />
            <mxPoint x="570" y="-100" as="targetPoint" />
            <Array as="points">
              <mxPoint x="550" y="-110" />
            </Array>
          </mxGeometry>
        </mxCell>
        <mxCell id="r3s8fJWrFk4dB2Nv2RAv-2" value="&lt;font face=&quot;Verdana&quot;&gt;&lt;i&gt;&lt;b&gt;Análise das Alternativas&lt;/b&gt;&lt;/i&gt;&lt;/font&gt;" style="rounded=1;whiteSpace=wrap;html=1;shadow=1;strokeWidth=2;fillColor=#f8cecc;strokeColor=#000000;" vertex="1" parent="1">
          <mxGeometry x="580" y="-80" width="120" height="60" as="geometry" />
        </mxCell>
        <mxCell id="r3s8fJWrFk4dB2Nv2RAv-3" value="" style="endArrow=classic;html=1;rounded=0;strokeWidth=4;shadow=1;" edge="1" parent="1">
          <mxGeometry width="50" height="50" relative="1" as="geometry">
            <mxPoint x="639.5" as="sourcePoint" />
            <mxPoint x="640" y="50" as="targetPoint" />
            <Array as="points">
              <mxPoint x="639.5" />
              <mxPoint x="639.5" y="40" />
            </Array>
          </mxGeometry>
        </mxCell>
        <mxCell id="r3s8fJWrFk4dB2Nv2RAv-4" value="&lt;i&gt;&lt;b&gt;&lt;font face=&quot;Verdana&quot;&gt;Projeto&lt;/font&gt;&lt;/b&gt;&lt;/i&gt;" style="rounded=1;whiteSpace=wrap;html=1;fillColor=#fff2cc;strokeColor=#000000;strokeWidth=2;shadow=1;" vertex="1" parent="1">
          <mxGeometry x="580" y="80" width="120" height="60" as="geometry" />
        </mxCell>
        <mxCell id="r3s8fJWrFk4dB2Nv2RAv-5" value="" style="endArrow=classic;html=1;rounded=0;strokeWidth=4;shadow=1;" edge="1" parent="1">
          <mxGeometry width="50" height="50" relative="1" as="geometry">
            <mxPoint x="580" y="170" as="sourcePoint" />
            <mxPoint x="510" y="220" as="targetPoint" />
          </mxGeometry>
        </mxCell>
        <mxCell id="r3s8fJWrFk4dB2Nv2RAv-6" value="&lt;font face=&quot;Verdana&quot;&gt;&lt;i&gt;&lt;b&gt;Desenvolvimento&lt;/b&gt;&lt;/i&gt;&lt;/font&gt;" style="rounded=1;whiteSpace=wrap;html=1;shadow=1;strokeWidth=2;fillColor=#dae8fc;strokeColor=#000000;" vertex="1" parent="1">
          <mxGeometry x="360" y="220" width="120" height="60" as="geometry" />
        </mxCell>
        <mxCell id="r3s8fJWrFk4dB2Nv2RAv-7" value="" style="endArrow=classic;html=1;rounded=0;shadow=1;strokeWidth=4;" edge="1" parent="1">
          <mxGeometry width="50" height="50" relative="1" as="geometry">
            <mxPoint x="330" y="220" as="sourcePoint" />
            <mxPoint x="260" y="170" as="targetPoint" />
            <Array as="points">
              <mxPoint x="330" y="220" />
            </Array>
          </mxGeometry>
        </mxCell>
        <mxCell id="r3s8fJWrFk4dB2Nv2RAv-8" value="&lt;i&gt;&lt;b&gt;&lt;font face=&quot;Verdana&quot;&gt;Implementação&lt;/font&gt;&lt;/b&gt;&lt;/i&gt;" style="rounded=1;whiteSpace=wrap;html=1;strokeWidth=2;shadow=1;fillColor=#ffe6cc;strokeColor=#000000;" vertex="1" parent="1">
          <mxGeometry x="150" y="80" width="120" height="60" as="geometry" />
        </mxCell>
        <mxCell id="r3s8fJWrFk4dB2Nv2RAv-9" value="" style="endArrow=classic;html=1;rounded=0;strokeWidth=4;shadow=1;" edge="1" parent="1">
          <mxGeometry width="50" height="50" relative="1" as="geometry">
            <mxPoint x="209.5" y="50" as="sourcePoint" />
            <mxPoint x="209.5" as="targetPoint" />
          </mxGeometry>
        </mxCell>
        <mxCell id="r3s8fJWrFk4dB2Nv2RAv-10" value="&lt;i&gt;&lt;b&gt;&lt;font face=&quot;Verdana&quot;&gt;Manutencões&lt;/font&gt;&lt;/b&gt;&lt;/i&gt;" style="rounded=1;whiteSpace=wrap;html=1;strokeWidth=2;shadow=1;fillColor=#e1d5e7;strokeColor=#000000;" vertex="1" parent="1">
          <mxGeometry x="150" y="-80" width="120" height="60" as="geometry" />
        </mxCell>
        <mxCell id="r3s8fJWrFk4dB2Nv2RAv-11" value="" style="endArrow=classic;html=1;rounded=0;strokeWidth=4;shadow=1;" edge="1" parent="1">
          <mxGeometry width="50" height="50" relative="1" as="geometry">
            <mxPoint x="260" y="-90" as="sourcePoint" />
            <mxPoint x="330" y="-130" as="targetPoint" />
          </mxGeometry>
        </mxCell>
      </root>
    </mxGraphModel>
  </diagram>
</mxfile>
